<mxfile host="app.diagrams.net" agent="Mozilla/5.0 (Windows NT 10.0; Win64; x64) AppleWebKit/537.36 (KHTML, like Gecko) Chrome/131.0.0.0 Safari/537.36 Edg/131.0.0.0" version="25.0.3">
  <diagram id="C5RBs43oDa-KdzZeNtuy" name="Page-1">
    <mxGraphModel dx="1554" dy="398" grid="1" gridSize="10" guides="1" tooltips="1" connect="1" arrows="1" fold="1" page="1" pageScale="1" pageWidth="827" pageHeight="1169" math="0" shadow="0">
      <root>
        <mxCell id="WIyWlLk6GJQsqaUBKTNV-0" />
        <mxCell id="WIyWlLk6GJQsqaUBKTNV-1" parent="WIyWlLk6GJQsqaUBKTNV-0" />
        <mxCell id="mvioNwK95yMqdUQ73LqQ-36" value="" style="swimlane;fontFamily=Sarabun;fontSource=https%3A%2F%2Ffonts.googleapis.com%2Fcss%3Ffamily%3DSarabun;" parent="WIyWlLk6GJQsqaUBKTNV-1" vertex="1">
          <mxGeometry x="-710" y="30" width="660" height="2470" as="geometry" />
        </mxCell>
        <mxCell id="mvioNwK95yMqdUQ73LqQ-35" value="&lt;font data-font-src=&quot;https://fonts.googleapis.com/css?family=Sarabun&quot; face=&quot;Sarabun&quot;&gt;Start&lt;/font&gt;" style="ellipse;whiteSpace=wrap;html=1;" parent="mvioNwK95yMqdUQ73LqQ-36" vertex="1">
          <mxGeometry x="255" y="40" width="130" height="30" as="geometry" />
        </mxCell>
        <mxCell id="QNhVIbcrn-Icenjs99R--4" style="edgeStyle=orthogonalEdgeStyle;rounded=0;orthogonalLoop=1;jettySize=auto;html=1;entryX=0.473;entryY=0.019;entryDx=0;entryDy=0;entryPerimeter=0;" parent="mvioNwK95yMqdUQ73LqQ-36" source="mvioNwK95yMqdUQ73LqQ-35" edge="1">
          <mxGeometry relative="1" as="geometry">
            <mxPoint x="320.3299999999999" y="111.71000000000004" as="targetPoint" />
          </mxGeometry>
        </mxCell>
        <mxCell id="7FvD2pkRFejC4L9nY_ox-0" style="edgeStyle=orthogonalEdgeStyle;rounded=0;orthogonalLoop=1;jettySize=auto;html=1;" edge="1" parent="mvioNwK95yMqdUQ73LqQ-36" source="7FvD2pkRFejC4L9nY_ox-1">
          <mxGeometry relative="1" as="geometry">
            <mxPoint x="318" y="230" as="targetPoint" />
          </mxGeometry>
        </mxCell>
        <mxCell id="7FvD2pkRFejC4L9nY_ox-1" value="Display &quot;Input N: &quot;" style="shape=parallelogram;perimeter=parallelogramPerimeter;whiteSpace=wrap;html=1;fixedSize=1;" vertex="1" parent="mvioNwK95yMqdUQ73LqQ-36">
          <mxGeometry x="258" y="110" width="120" height="60" as="geometry" />
        </mxCell>
        <mxCell id="7FvD2pkRFejC4L9nY_ox-2" style="edgeStyle=orthogonalEdgeStyle;rounded=0;orthogonalLoop=1;jettySize=auto;html=1;" edge="1" parent="mvioNwK95yMqdUQ73LqQ-36" source="7FvD2pkRFejC4L9nY_ox-3">
          <mxGeometry relative="1" as="geometry">
            <mxPoint x="313" y="360" as="targetPoint" />
          </mxGeometry>
        </mxCell>
        <mxCell id="7FvD2pkRFejC4L9nY_ox-3" value="Read Input size of array" style="shape=parallelogram;perimeter=parallelogramPerimeter;whiteSpace=wrap;html=1;fixedSize=1;" vertex="1" parent="mvioNwK95yMqdUQ73LqQ-36">
          <mxGeometry x="253" y="230" width="120" height="60" as="geometry" />
        </mxCell>
        <mxCell id="7FvD2pkRFejC4L9nY_ox-4" style="edgeStyle=orthogonalEdgeStyle;rounded=0;orthogonalLoop=1;jettySize=auto;html=1;" edge="1" parent="mvioNwK95yMqdUQ73LqQ-36" source="7FvD2pkRFejC4L9nY_ox-5">
          <mxGeometry relative="1" as="geometry">
            <mxPoint x="313" y="480" as="targetPoint" />
          </mxGeometry>
        </mxCell>
        <mxCell id="7FvD2pkRFejC4L9nY_ox-5" value="Read user input for then store in array" style="shape=parallelogram;perimeter=parallelogramPerimeter;whiteSpace=wrap;html=1;fixedSize=1;" vertex="1" parent="mvioNwK95yMqdUQ73LqQ-36">
          <mxGeometry x="239.5" y="360" width="147" height="60" as="geometry" />
        </mxCell>
        <mxCell id="7FvD2pkRFejC4L9nY_ox-6" style="edgeStyle=orthogonalEdgeStyle;rounded=0;orthogonalLoop=1;jettySize=auto;html=1;" edge="1" parent="mvioNwK95yMqdUQ73LqQ-36" source="7FvD2pkRFejC4L9nY_ox-7">
          <mxGeometry relative="1" as="geometry">
            <mxPoint x="313" y="620" as="targetPoint" />
          </mxGeometry>
        </mxCell>
        <mxCell id="7FvD2pkRFejC4L9nY_ox-7" value="Sort array using selection sort" style="rounded=0;whiteSpace=wrap;html=1;" vertex="1" parent="mvioNwK95yMqdUQ73LqQ-36">
          <mxGeometry x="253" y="480" width="120" height="60" as="geometry" />
        </mxCell>
        <mxCell id="7FvD2pkRFejC4L9nY_ox-8" style="edgeStyle=orthogonalEdgeStyle;rounded=0;orthogonalLoop=1;jettySize=auto;html=1;" edge="1" parent="mvioNwK95yMqdUQ73LqQ-36" source="7FvD2pkRFejC4L9nY_ox-9">
          <mxGeometry relative="1" as="geometry">
            <mxPoint x="313" y="750" as="targetPoint" />
          </mxGeometry>
        </mxCell>
        <mxCell id="7FvD2pkRFejC4L9nY_ox-9" value="Count duplicate number each value in array store in another array" style="rounded=0;whiteSpace=wrap;html=1;" vertex="1" parent="mvioNwK95yMqdUQ73LqQ-36">
          <mxGeometry x="253" y="620" width="120" height="60" as="geometry" />
        </mxCell>
        <mxCell id="7FvD2pkRFejC4L9nY_ox-10" style="edgeStyle=orthogonalEdgeStyle;rounded=0;orthogonalLoop=1;jettySize=auto;html=1;" edge="1" parent="mvioNwK95yMqdUQ73LqQ-36" source="7FvD2pkRFejC4L9nY_ox-11">
          <mxGeometry relative="1" as="geometry">
            <mxPoint x="313" y="910" as="targetPoint" />
          </mxGeometry>
        </mxCell>
        <mxCell id="7FvD2pkRFejC4L9nY_ox-11" value="Display only array not duplicate number" style="shape=parallelogram;perimeter=parallelogramPerimeter;whiteSpace=wrap;html=1;fixedSize=1;" vertex="1" parent="mvioNwK95yMqdUQ73LqQ-36">
          <mxGeometry x="226.5" y="750" width="173" height="60" as="geometry" />
        </mxCell>
        <mxCell id="7FvD2pkRFejC4L9nY_ox-12" value="&lt;font data-font-src=&quot;https://fonts.googleapis.com/css?family=Sarabun&quot; face=&quot;Sarabun&quot;&gt;End&lt;/font&gt;" style="ellipse;whiteSpace=wrap;html=1;" vertex="1" parent="mvioNwK95yMqdUQ73LqQ-36">
          <mxGeometry x="248" y="910" width="130" height="30" as="geometry" />
        </mxCell>
      </root>
    </mxGraphModel>
  </diagram>
</mxfile>
